<svg id="Layer_1" data-name="Layer 1" xmlns="http://www.w3.org/2000/svg" viewBox="0 0 734 512"><g id="Group_49" data-name="Group 49"><g id="Rectangle_9" data-name="Rectangle 9"><path d="M674.42,511.79H59.91A59.27,59.27,0,0,1,.72,452.59V59.34A59.27,59.27,0,0,1,59.91.15H674.42a59.27,59.27,0,0,1,59.19,59.19V452.59A59.27,59.27,0,0,1,674.42,511.79ZM59.91,52.27a7.08,7.08,0,0,0-7.07,7.07V452.59a7.08,7.08,0,0,0,7.07,7.08H674.42a7.08,7.08,0,0,0,7.07-7.08V59.34a7.08,7.08,0,0,0-7.07-7.07Z"/></g></g><path d="M199,89.87H100.3a9.86,9.86,0,0,0-9.85,9.86v99a12,12,0,0,0,12,12h14a12,12,0,0,0,12-12V127.87H199a12,12,0,0,0,12-12v-14A12,12,0,0,0,199,89.87Z"/><path d="M631,300.87H617a12,12,0,0,0-12,12v70.87H534.45a12,12,0,0,0-12,12v14a12,12,0,0,0,12,12h98.69a9.87,9.87,0,0,0,9.86-9.86v-99A12,12,0,0,0,631,300.87Z"/></svg>