<svg id="Layer_1" data-name="Layer 1" xmlns="http://www.w3.org/2000/svg" viewBox="0 0 386 512"><path d="M378.08,305.88,37.41,5.29A23,23,0,0,0-.49,23.11V476.73a23.07,23.07,0,0,0,23,23.1h.05a23.06,23.06,0,0,0,17-7.54l84.09-91.91,43.91,97.33a23,23,0,0,0,30.51,11.52l73-33a23,23,0,0,0,11.52-30.52l-43.9-97.23,124.48-2.32a23.07,23.07,0,0,0,14.85-40.32ZM202.83,303a23.05,23.05,0,0,0-20.62,32.49l48.86,108.16L200,457.74,151.11,349.56A23,23,0,0,0,134,336.43l-3.69,0h-.06a23.09,23.09,0,0,0-17,7.48L45.59,417.45V74.14L303.1,301.26Z"/></svg>