<svg id="Layer_1" data-name="Layer 1" xmlns="http://www.w3.org/2000/svg" viewBox="0 0 512 512"><g id="noun_Upload_3550734" data-name="noun Upload 3550734"><path id="Path_18" data-name="Path 18" d="M283.82,406.05V207.35l60.23,60.23a6.63,6.63,0,0,0,9.38,0L384.06,237a6.63,6.63,0,0,0,0-9.38L275.51,119a28.31,28.31,0,0,0-40,0L127,227.57a6.63,6.63,0,0,0,0,9.38l30.63,30.63a6.63,6.63,0,0,0,9.38,0l60.23-60.23v198.7a6.63,6.63,0,0,0,6.63,6.63h43.35A6.63,6.63,0,0,0,283.82,406.05Z"/><path id="Path_19" data-name="Path 19" d="M512,93.65A93.86,93.86,0,0,0,418.15-.21H355.89a6,6,0,0,0-6,6V45a6,6,0,0,0,6,6h62.26a42.66,42.66,0,0,1,42.67,42.66v62.27a6,6,0,0,0,6,6H506a6,6,0,0,0,6-6Z"/><path id="Path_20" data-name="Path 20" d="M6,161.92h39.2a6,6,0,0,0,6-6V93.65A42.66,42.66,0,0,1,93.89,51h62.27a6,6,0,0,0,6-6V5.79a6,6,0,0,0-6-6H93.89A93.87,93.87,0,0,0,0,93.65H0v62.27A6,6,0,0,0,6,161.92Z"/><path id="Path_21" data-name="Path 21" d="M0,417.92a93.87,93.87,0,0,0,93.87,93.87h62.27a6,6,0,0,0,6-6v-39.2a6,6,0,0,0-6-6H93.89a42.67,42.67,0,0,1-42.67-42.67V355.65a6,6,0,0,0-6-6H6a6,6,0,0,0-6,6Z"/><path id="Path_22" data-name="Path 22" d="M506,349.65h-39.2a6,6,0,0,0-6,6v62.27a42.67,42.67,0,0,1-42.67,42.67H355.89a6,6,0,0,0-6,6v39.2a6,6,0,0,0,6,6h62.26A93.87,93.87,0,0,0,512,417.92h0V355.65A6,6,0,0,0,506,349.65Z"/></g></svg>