<svg id="annotation-transparency" data-name="Annotation Transparency" xmlns="http://www.w3.org/2000/svg" viewBox="0 0 510.24 510.24"><defs><style>.cls-1{fill:#1d1d1b;}</style></defs><path class="cls-1" d="M509.68,192.67c0-106.57-86.39-193-193-193a193,193,0,0,0-184,134.68A193.05,193.05,0,0,0,.56,317.56c0,106.58,86.39,193,193,193a193,193,0,0,0,184-134.68A193,193,0,0,0,509.68,192.67ZM298.16,422.19A148,148,0,0,1,88.89,212.93a148.79,148.79,0,0,1,34.94-26c0,1.9-.09,3.81-.09,5.72,0,106.58,86.4,193,193,193,2.8,0,5.59-.07,8.36-.19A148.12,148.12,0,0,1,298.16,422.19ZM341.5,317.56A149.87,149.87,0,0,1,340,338.82a149.68,149.68,0,0,1-23.27,1.82,148.19,148.19,0,0,1-49.55-8.46l65.42-65.42A148.22,148.22,0,0,1,341.5,317.56ZM233.42,315a150.05,150.05,0,0,1-39.86-40.23l81-81a149.52,149.52,0,0,1,40.57,39.52Zm-56.73-74.28a148.29,148.29,0,0,1-7.95-48.06,151.35,151.35,0,0,1,1.51-21.26,149.48,149.48,0,0,1,70.07,5.7ZM386.4,323.28c.06-1.9.1-3.8.1-5.72,0-106.57-86.4-193-193-193-2.81,0-5.59.08-8.37.2A148,148,0,1,1,386.4,323.28Z"/></svg>
