<svg id="Layer_1" data-name="Layer 1" xmlns="http://www.w3.org/2000/svg" viewBox="0 0 758 512"><path d="M735.22,195h0a95.94,95.94,0,0,0-10.28-10.28L524.14,12.62a54.28,54.28,0,0,0-35.28-13H57.42A54.26,54.26,0,0,0,3.22,53.78V459.64a54.26,54.26,0,0,0,54.2,54.21H488.86a54.23,54.23,0,0,0,35.28-13.05l200.8-172.11A94.91,94.91,0,0,0,735.22,195Zm-51.5,79.24a26.06,26.06,0,0,1-2.92,2.93L483.82,446H71V67.4H483.82l197,168.84a26.95,26.95,0,0,1,2.92,38Z"/><path d="M536.33,186A64.94,64.94,0,1,0,601.28,251,65,65,0,0,0,536.33,186Zm0,83.19A18.25,18.25,0,1,1,554.58,251,18.27,18.27,0,0,1,536.33,269.2Z"/></svg>