<svg id="background-settings-icon" data-name="Background Settings" xmlns="http://www.w3.org/2000/svg" viewBox="0 0 525 494"><path d="M341.77,317.45a56.46,56.46,0,0,1-7.86-3.71,49.08,49.08,0,0,1-17.83-17.59c-.94.29-1.89.54-2.84.77v87.41L247.14,328a17.72,17.72,0,0,0-24,1.11l-24.75,25.33-88.57-84.24a17.56,17.56,0,0,0-24.33,0L35.26,318.41V197a8.06,8.06,0,0,1,8.06-8H210.25a51.89,51.89,0,0,1-5.42-23.16c0-4.08-.05-8-.06-11.9H43.36A43.25,43.25,0,0,0,.09,197V451.17a43.26,43.26,0,0,0,43.27,43H305.14a43.24,43.24,0,0,0,43.26-43V320.29l-6-2.58ZM43.34,459.21a7.91,7.91,0,0,1-5.63-2.33,8.06,8.06,0,0,1-2.39-5.68V367.12l62.43-60,76.06,72.48-77.7,79.65Zm269.9-8a8.11,8.11,0,0,1-8.08,8H145.22l91.57-93.85,76.45,65.18Z"/><path d="M524,129.73c-.12-14.35-10.67-24.84-25.07-25-3.75,0-7.87-.06-12.07,0-.63-1.57-1.26-3.08-1.92-4.55,3.06-2.91,6-5.88,8.91-8.77l.59-.59c9.74-9.77,9.83-23.91.2-33.64C485.8,48.26,476.53,39,467.12,29.66c-9.92-9.83-23.83-9.8-33.83.07-1.56,1.53-3.1,3.08-4.65,4.63-1.35,1.35-2.72,2.73-4.1,4.1-1.61-.67-3.22-1.36-4.87-2.07,0-3.68,0-7.39,0-11.11C419.57,10.42,409.21,0,394.46-.14,383-.23,371-.23,358.77-.14,344,0,333.59,10.39,333.49,25.21c0,3.87,0,7.69,0,11.52-1.75.69-3.44,1.37-5.08,2.06C325.67,36,322.67,33,319,29.47c-9.74-9.56-23.8-9.54-33.42,0-9,9-18.23,18.19-27.31,27.31-9.83,9.88-9.85,24.25,0,34.15l1.1,1.12c2.43,2.46,4.93,5,7.48,7.49-.84,1.92-1.6,3.73-2.3,5.48-3.94,0-7.67,0-10.69,0-14.77.19-25.17,10.57-25.29,25.24,0,5.62-.06,11.38-.06,17.37,0,5.77,0,11.75.06,18,.1,15,10.31,25.23,25.41,25.42,3.37.05,6.93.08,10.58,0l1.08,2.73c.36.9.72,1.77,1.05,2.64-1.55,1.59-3.14,3.17-4.79,4.81q-1.87,1.85-3.72,3.71c-10.26,10.35-10.28,24.2-.06,34.46,8.72,8.76,17.71,17.75,26.73,26.73,10.26,10.2,24.1,10.2,34.46,0,2.67-2.63,5.7-5.63,8.75-8.73,1.72.73,3.43,1.44,5.17,2.11-.05,4.72,0,9.15.2,13.66.41,8.23,4.73,15.16,12.19,19.51a34.25,34.25,0,0,0,4.59,2.12c.44.17.89.35,1.32.54l1.7.73h46.93l2.21-1.43c.37-.24.75-.5,1.12-.77l.33-.24c10.05-4.38,15.55-12.77,15.55-23.69v-.43c0-2.21,0-4.43,0-6.65,0-1.33,0-2.69,0-4.05q2.46-1,4.88-2c2,2,4,4.06,6,6l2.35,2.33c10.88,10.84,24.39,10.83,35.27,0q13.1-13,26.13-26.13c10.4-10.43,10.45-24.47.13-34.92-1.66-1.68-3.33-3.34-5-5-1.36-1.36-2.72-2.71-4.07-4.08.63-1.58,1.28-3.16,1.94-4.78,3.95,0,7.92,0,11.9,0,14.42-.11,25-10.6,25.1-24.93C524.11,153.68,524.11,141.67,524,129.73Zm-31.84,27.85c-3.51,0-7,0-10.42,0h-6.06A16.34,16.34,0,0,0,460.5,167.9q-1.42,3.53-2.87,7c-2.18,5.32-4.44,10.82-6.51,16.36-2.45,6.55-.79,13.57,4.45,18.78q5.19,5.16,10.36,10.35l-16.19,16.18L439,225.89a15.79,15.79,0,0,0-19.75-2.58,79.18,79.18,0,0,1-20,8.38,15.75,15.75,0,0,0-11.77,15.63c0,2,0,4,0,5.94,0,3.57,0,7.23,0,10.91h-9.18c-4.31,0-8.71,0-13.12,0V248.35a16.28,16.28,0,0,0-12.42-15.94c-7-1.56-13.38-4.64-18.73-7.45-8-4.18-15.6-3-22.08,3.45l-8.16,8.13-1.33,1.34-16.18-16.2c3.38-3.45,6.59-6.72,10-9.81,3.18-2.89,7.94-9.22,4.06-19-2.86-7.22-6.1-15.41-9.59-23.42-2.25-5.15-6.12-11-16.19-10.59-3.54.15-7.09.12-10.85.1l-3.23,0q0-5.43,0-11t0-11.14c3,0,6.08,0,9,0h5.78c7.79,0,14-4.65,16.54-12.42,1.74-5.3,3.79-10.6,5.91-16a19.51,19.51,0,0,1,1-2,36,36,0,0,0,2-4,15.77,15.77,0,0,0-3.79-17.7c-3.54-3.48-7-7-10.55-10.51l16.18-16.18,10.63,10.65c5.09,5.1,11.33,6.33,18.06,3.56q11.8-4.84,23.62-9.64a16.1,16.1,0,0,0,10.29-15.15c0-2,0-4,0-6,0-3.33,0-6.72,0-10.14,7.15,0,14.52,0,22.3,0,0,3.39,0,6.77,0,10.07,0,2,0,4,0,6,0,7.36,4.28,13.2,11.45,15.64l.92.31c4.56,1.55,8.86,3,13.07,4.73a26.6,26.6,0,0,1,3.19,1.71c1.14.68,2.44,1.45,3.87,2.15,6.87,3.34,14,2,19.51-3.73,3.45-3.55,7-7.14,10.5-10.64l16.16,16.19-8.2,8.1-3.18,3.14c-5.51,5.44-6.65,12.55-3,19a95.26,95.26,0,0,1,8.61,20.86,15.64,15.64,0,0,0,15.22,11.16h6c3.49,0,7.06,0,10.64,0C492.14,142.73,492.13,149.92,492.17,157.58Z"/><path d="M441.34,148.4c-.36-37.47-29.36-66.58-66-66.28a66.32,66.32,0,0,0-65,65.19v.53a65.67,65.67,0,0,0,19.85,46.92,66.9,66.9,0,0,0,47.63,18.77c16.47-.15,32.82-7.32,44.86-19.67A65,65,0,0,0,441.35,149c0-.19,0-.38,0-.57Zm-31.8.93c-.27,16.8-15.9,32.7-32.16,32.72a35.88,35.88,0,0,1-25.6-10.45,33.06,33.06,0,0,1-9.85-23.48v0c0-18.46,15.71-34,34.26-34h.09a32.68,32.68,0,0,1,23.24,9.77,34.94,34.94,0,0,1,10,24.87Z"/></svg>
