<svg id="Layer_1" data-name="Layer 1" xmlns="http://www.w3.org/2000/svg" width="512" height="512" viewBox="0 0 512 512"><path d="M472.3613,392.3606v-272.79a61.4868,61.4868,0,1,0-79.68-79.9963H119.281a61.273,61.273,0,1,0-79.92,79.9011v272.98a61.4872,61.4872,0,1,0,79.8345,80.1187H392.7671a61.2742,61.2742,0,1,0,79.5942-80.2139Zm-79.68,34.2139H119.281a61.559,61.559,0,0,0-33.92-34.2139v-272.79a61.5593,61.5593,0,0,0,33.8345-33.9963H392.7671a61.5657,61.5657,0,0,0,33.5942,33.9011v272.98A61.5665,61.5665,0,0,0,392.6816,426.5745Z"/></svg>