<svg id="brightness" data-name="Brightness" xmlns="http://www.w3.org/2000/svg" viewBox="0 0 512 512"><path d="M394,258.4c.07-.82.11-1.64.11-2.47-.11-28.48-8.84-56.36-24.55-78.49a159.63,159.63,0,0,0-14.38-17.61l-.15-.15A154.26,154.26,0,0,0,338,145a135.05,135.05,0,0,0-35.94-19.19c-25.78-9.49-56.25-10.51-83.63-2.8-26.8,7.59-50.94,23.17-67.92,43.83a154.54,154.54,0,0,0-13.17,18.25l-.09.16a149.27,149.27,0,0,0-9.89,20.45,138.71,138.71,0,0,0,10.1,121.32c14.37,23.79,35.58,42.92,59.73,53.88a129.76,129.76,0,0,0,44.66,12.36,135.24,135.24,0,0,0,42.55-2.16c26.52-5.28,51.74-19.27,71-39.4,19.5-20.41,32.46-46.13,36.47-72.35A160.61,160.61,0,0,0,394,258.4ZM288.37,178.57a105,105,0,0,1,19,11.1,106.74,106.74,0,0,1,14.85,14.83,105.27,105.27,0,0,1,11.22,19.22,105.35,105.35,0,0,1,5.69,21.07c.38,3.72.58,7.47.59,11.2v.23c0,3.65-.21,7.32-.59,11a106,106,0,0,1-5.72,21.15,105,105,0,0,1-11.14,19.09,107.11,107.11,0,0,1-14.79,14.79,105.68,105.68,0,0,1-19.23,11.22,105.27,105.27,0,0,1-21.2,5.71,105.72,105.72,0,0,1-22.07,0,106.19,106.19,0,0,1-21.31-5.74,104.55,104.55,0,0,1-19.15-11.19,107.09,107.09,0,0,1-14.75-14.75,105.68,105.68,0,0,1-11.22-19.23,105,105,0,0,1-5.7-21.19,105.23,105.23,0,0,1,0-22.09,106,106,0,0,1,5.74-21.29,104.2,104.2,0,0,1,11.15-19.1,106.68,106.68,0,0,1,14.75-14.77,105.24,105.24,0,0,1,19.27-11.25A105.19,105.19,0,0,1,245,172.83a105.62,105.62,0,0,1,22.06,0A105.8,105.8,0,0,1,288.37,178.57Z"/><path d="M255.19,89.05c.37,0,.75,0,1.12,0,15-.69,26.81-12.61,26.81-27.14V27.17a27.69,27.69,0,0,0-8.73-19.84A25.35,25.35,0,0,0,255.61,0c-15,.69-26.8,12.61-26.8,27.14V61.88a27.68,27.68,0,0,0,8.72,19.83A25.5,25.5,0,0,0,255.19,89.05Z"/><path d="M255.61,422.91c-15,.69-26.8,12.62-26.8,27.15v34.7a27.72,27.72,0,0,0,8.72,19.84,25.54,25.54,0,0,0,17.66,7.33c.37,0,.75,0,1.12,0,15-.69,26.81-12.61,26.81-27.14v-34.7a27.66,27.66,0,0,0-8.73-19.84A25.41,25.41,0,0,0,255.61,422.91Z"/><path d="M89,255.61c-.69-15-12.62-26.8-27.14-26.8H27.17a27.72,27.72,0,0,0-19.84,8.72A25.43,25.43,0,0,0,0,256.31c.69,15,12.61,26.81,27.14,26.81H61.88a27.69,27.69,0,0,0,19.84-8.73A25.4,25.4,0,0,0,89,255.61Z"/><path d="M511.9,255.61c-.69-15-12.61-26.8-27.14-26.8h-34.7a27.69,27.69,0,0,0-19.84,8.72,25.4,25.4,0,0,0-7.31,18.78c.69,15,12.62,26.81,27.15,26.81h34.7a27.69,27.69,0,0,0,19.84-8.73A25.42,25.42,0,0,0,511.9,255.61Z"/><path d="M126.79,384.68c-11.09-10.2-27.87-10.09-38.18.22L69.79,403.72a27.66,27.66,0,0,0-7.85,20.12A25.57,25.57,0,0,0,70,442.36a28.46,28.46,0,0,0,19.23,7.58,26.67,26.67,0,0,0,19-7.81L127,423.32a27.64,27.64,0,0,0,7.84-20.13A25.49,25.49,0,0,0,126.79,384.68Z"/><path d="M385.13,127.24a28.42,28.42,0,0,0,19.23,7.59,26.67,26.67,0,0,0,19-7.81l18.82-18.81A27.7,27.7,0,0,0,450,88.08a25.57,25.57,0,0,0-8.1-18.53c-11.12-10.15-27.89-10-38.17.24L384.9,88.61a27.66,27.66,0,0,0-7.85,20.12A25.55,25.55,0,0,0,385.13,127.24Z"/><path d="M88.6,127a27.61,27.61,0,0,0,19.51,7.86h.62a25.47,25.47,0,0,0,18.51-8.08c10.2-11.09,10.1-27.86-.22-38.18L108.21,69.79a27.69,27.69,0,0,0-20.13-7.85A25.55,25.55,0,0,0,69.57,70c-10.2,11.1-10.1,27.87.22,38.19Z"/><path d="M423.32,384.9a27.56,27.56,0,0,0-20.13-7.85,25.57,25.57,0,0,0-18.51,8.08c-10.19,11.1-10.1,27.87.22,38.19l18.82,18.82A27.61,27.61,0,0,0,423.23,450h.62a25.55,25.55,0,0,0,18.52-8.1c10.15-11.12,10.05-27.89-.23-38.17Z"/></svg>
