<svg id="brush" data-name="Brush" xmlns="http://www.w3.org/2000/svg" viewBox="0 0 535 511"><g id="noun_paintbrush_3540206" data-name="noun paintbrush 3540206"><g id="Path_152" data-name="Path 152"><path d="M518.76,43.87,496.85,22a54.29,54.29,0,0,0-76.7,0L189,253.09a2,2,0,0,0-.76.1c-.12.12-.23,0-.34.1s-.23,0-.33.1a185.83,185.83,0,0,0-96,53.48C37.48,361,30.25,481.34,30,486.36a23,23,0,0,0,6.8,17.75,23.26,23.26,0,0,0,17.75,6.81c5.16-.32,125.36-7.46,179.49-61.59a185,185,0,0,0,53.48-96,.48.48,0,0,1,.11-.34c.11-.11,0-.23.1-.33a1.62,1.62,0,0,0,.1-.77L519,120.79A54.78,54.78,0,0,0,518.76,43.87ZM453,54.83a7.67,7.67,0,0,1,10.85-.08l.09.08,21.92,21.92A7.69,7.69,0,0,1,486,87.61l-.09.09L261.23,312.35l-32.86-32.87ZM79.11,461.61c5.37-38.24,18.51-95.22,45.15-121.86A147.2,147.2,0,0,1,185.15,302l53.57,53.57A149.07,149.07,0,0,1,201,416.48C174.24,443.21,117.26,456.35,79.11,461.61Z"/></g></g><g id="Ellipse_27" data-name="Ellipse 27"><path d="M85.44,170.34a84.9,84.9,0,1,1,84.9-84.9A85,85,0,0,1,85.44,170.34Zm0-163.79a78.9,78.9,0,1,0,78.9,78.89A79,79,0,0,0,85.44,6.55Z"/><path d="M85.44,167.35a81.91,81.91,0,1,1,81.9-81.91A82,82,0,0,1,85.44,167.35Zm0-135.14a53.24,53.24,0,1,0,53.23,53.23A53.28,53.28,0,0,0,85.44,32.21Z"/><path d="M85.44,170.35a84.91,84.91,0,1,1,84.9-84.91A85,85,0,0,1,85.44,170.35Zm0-163.81a78.91,78.91,0,1,0,78.9,78.9A79,79,0,0,0,85.44,6.54Zm0,135.14a56.24,56.24,0,1,1,56.23-56.24A56.29,56.29,0,0,1,85.44,141.68Zm0-106.47a50.24,50.24,0,1,0,50.23,50.23A50.28,50.28,0,0,0,85.44,35.21Z"/></g></svg>
