<svg id="Layer_1" data-name="Layer 1" xmlns="http://www.w3.org/2000/svg" width="575.5501" height="513.7234" viewBox="0 0 575.5501 513.7234"><path d="M514.1784,94.0425a60.9771,60.9771,0,0,0-49.73,25.7211L120.9569,48.4868a61.2328,61.2328,0,1,0-59.7785,74.7,60.9779,60.9779,0,0,0,49.729-25.72L454.4,168.7428a61.3956,61.3956,0,0,0,5.9226,16.1144l-158.2439,206.8a61.6093,61.6093,0,1,0,47.2864,59.9568,61.59,61.59,0,0,0-7.5406-29.6213l158.03-206.52a61.5215,61.5215,0,1,0,14.324-121.4305Z"/><rect x="179.9054" y="281.1677" width="49.9995" height="88.7452" rx="24.9997" transform="translate(-135.0516 145.5625) rotate(-29.9151)"/><rect x="107.4518" y="152.5554" width="49.9995" height="88.7452" rx="24.9997" transform="translate(-80.564 92.2932) rotate(-29.9151)"/></svg>