<svg id="contrast" data-name="Contrast" xmlns="http://www.w3.org/2000/svg" viewBox="0 0 512 512"><defs><style>.cls-5{fill:none;}</style></defs><g id="Ellipse_15" data-name="Ellipse 15"><circle class="cls-5" cx="256" cy="256.11" r="256"/><path d="M256,512.11a256,256,0,0,1-181-437,254.33,254.33,0,0,1,181-75h0a256,256,0,0,1,181,437A254.3,254.3,0,0,1,256,512.11Zm0-457c-110.83,0-201,90.16-201,201s90.17,201,201,201,201-90.17,201-201a201,201,0,0,0-201-201Z"/></g><path id="Subtraction_1" data-name="Subtraction 1" d="M256,512.11h0a258.35,258.35,0,0,1-51.59-5.2A256,256,0,0,1,5.2,307.7a258.69,258.69,0,0,1,0-103.19A255.72,255.72,0,0,1,256,.11Z"/></svg>
