<svg id="Layer_1" data-name="Layer 1" xmlns="http://www.w3.org/2000/svg" width="575.5501" height="513.7234" viewBox="0 0 575.5501 513.7234"><path d="M163.9066,268.6419a.5164.5164,0,0,0,.1673.0185,25.7833,25.7833,0,0,0,18.3071-43.9187l-64.54-64.9209h212.01c.7276,0,1.4463-.0378,2.1587-.0974H468.289a26,26,0,0,0,0-52h-315a26.11,26.11,0,0,0-5.201.5212h-30.73l64.8464-64.8464a25.7784,25.7784,0,0,0,0-36.4473c-9.739-9.739-26.7173-9.739-36.4565,0L37.2523,115.4375a25.7168,25.7168,0,0,0,0,36.3172l108.4771,109.23A25.529,25.529,0,0,0,163.9066,268.6419Z"/><path d="M538.04,361.5525l-108.477-109.23a25.5287,25.5287,0,0,0-18.1773-7.6575.5129.5129,0,0,0-.1672-.0186,25.7833,25.7833,0,0,0-18.3071,43.9187l64.54,64.9209h-27.906a26.0489,26.0489,0,0,0-6.2566-.7629h-315a26,26,0,1,0,0,52H241.3561a25.7543,25.7543,0,0,0,4.1409.3391H457.935L393.0883,469.909a25.7782,25.7782,0,0,0,0,36.4472c9.739,9.739,26.7173,9.739,36.4565,0L538.04,397.87A25.7165,25.7165,0,0,0,538.04,361.5525Z"/></svg>