<svg id="Layer_1" data-name="Layer 1" xmlns="http://www.w3.org/2000/svg" viewBox="0 0 479 512"><path d="M424.64,68H340.46L334,42.25A54.43,54.43,0,0,0,281.2,1h-81a54.58,54.58,0,0,0-52.6,40.35L140.51,68H56.07A54.54,54.54,0,0,0,1.6,122.48c0,28.72,22.36,52.3,51.3,54.3L67.05,460.26A54.42,54.42,0,0,0,121.41,512H359.3a54.44,54.44,0,0,0,54.36-51.72l14.15-283.46A54.45,54.45,0,0,0,424.64,68Zm-38.71,108.9L371.86,458.21a12.54,12.54,0,0,1-12.56,11.9H121.41a12.55,12.55,0,0,1-12.58-11.92l-14-281.27ZM183.85,68l4.29-15.81a12.57,12.57,0,0,1,12.13-9.3h81a12.48,12.48,0,0,1,12.14,9.51L297.31,68Zm253.37,54.44A12.6,12.6,0,0,1,424.64,135H56.07a12.56,12.56,0,1,1,0-25.12H424.68A12.58,12.58,0,0,1,437.22,122.46Z"/><path d="M295.43,411.48l1.08,0a21,21,0,0,0,20.9-19.92l6.71-134a20.93,20.93,0,0,0-19.9-22v0l-1.06,0a21,21,0,0,0-20.92,19.92l-6.71,134A21,21,0,0,0,295.43,411.48Z"/><path d="M184.46,411.48h.8a21,21,0,0,0,19.92-22l-6.71-134A20.87,20.87,0,0,0,191.62,241a19.86,19.86,0,0,0-14.89-5.42h-.25a21,21,0,0,0-19.89,22l6.7,134.1A21.08,21.08,0,0,0,184.46,411.48Z"/></svg>