<svg id="delete-annotation" data-name="delete-annotation" xmlns="http://www.w3.org/2000/svg" viewBox="0 0 510.24 510.24"><path d="M434.1,76.14A251.46,251.46,0,0,0,255.12,2h0a253.12,253.12,0,0,0-179,432.1,253.12,253.12,0,1,0,358-358Zm-179,381.29c-111.55,0-202.31-90.76-202.31-202.31S143.57,52.81,255.12,52.81A202.31,202.31,0,0,1,457.43,255.12C457.43,366.67,366.67,457.43,255.12,457.43Z"/><path  d="M352.11,237.89a21.66,21.66,0,0,0-6.8-4.61,20.82,20.82,0,0,0-8.23-1.68H171.67a20.82,20.82,0,0,0-8.23,1.68,21.66,21.66,0,0,0-6.8,4.61,21.44,21.44,0,0,0-4.61,6.8,20.88,20.88,0,0,0,0,16.46,21.7,21.7,0,0,0,11.41,11.41,20.83,20.83,0,0,0,8.23,1.69H337.08a20.83,20.83,0,0,0,8.23-1.69,21.7,21.7,0,0,0,11.41-11.41,20.88,20.88,0,0,0,0-16.46A21.44,21.44,0,0,0,352.11,237.89Z"/></svg>
