<svg id="Layer_1" data-name="Layer 1" xmlns="http://www.w3.org/2000/svg" viewBox="0 0 481 512"><path d="M422.65,66.56H342.72l-5.58-22.3A57.82,57.82,0,0,0,281,.36H201a58,58,0,0,0-56,42.93l-6.22,23.27H58.59A57.88,57.88,0,0,0,51.5,181.88L65.33,458.31a57.89,57.89,0,0,0,57.79,55.05h235a57.87,57.87,0,0,0,57.79-55L429.74,182a57.92,57.92,0,0,0-7.09-115.4ZM380,182.4,366.39,455.87a8.25,8.25,0,0,1-8.26,7.84h-235a8.24,8.24,0,0,1-8.24-7.84L101.23,182.4ZM190.21,66.56,193,56.17l0,0a8.25,8.25,0,0,1,8-6.1h80a8.27,8.27,0,0,1,8,6.26l2.56,10.27Zm240.7,57.91a8.28,8.28,0,0,1-8.26,8.28H58.59a8.26,8.26,0,1,1,0-16.52h364.1a8.23,8.23,0,0,1,8.22,8.24Z"/><path d="M294.8,414.06c.43,0,.85,0,1.28,0a24.87,24.87,0,0,0,24.78-23.62l6.63-132.37a24.88,24.88,0,0,0-23.58-26.06,25.19,25.19,0,0,0-26.05,23.58L271.25,388a24.79,24.79,0,0,0,23.55,26.06Z"/><path d="M160.37,390.6a25,25,0,0,0,25.09,23.48c.32,0,.63,0,.95,0A24.87,24.87,0,0,0,210,388l-6.6-132.39a24.85,24.85,0,0,0-49.63,2.46Z"/></svg>