<svg id="Layer_1" data-name="Layer 1" xmlns="http://www.w3.org/2000/svg" width="575.5501" height="513.7234" viewBox="0 0 575.5501 513.7234"><path d="M436.2371,260.5481a26.0674,26.0674,0,0,0-7.6378-18.899L193.9915,7.0414a26.0675,26.0675,0,0,0-36.8594,36.8594l34.3308,34.331L41.0533,239.5377a74.71,74.71,0,0,0-.0227,105.6553l.0227.0223L142.5342,446.7224a74.6832,74.6832,0,0,0,105,.6256L427.9214,279.1342A26.0676,26.0676,0,0,0,436.2371,260.5481ZM228.3484,115.1174l118.8942,118.894H117.4834Z"/><path d="M476.163,292.2357a22.6872,22.6872,0,0,0-20.8153,8.5212c-14.9771,21.67-63.0973,94.1866-63.0973,130.88a80.9692,80.9692,0,1,0,161.9384,0c0-36.69-48.1212-109.211-63.0979-130.8807A22.5406,22.5406,0,0,0,476.163,292.2357Zm34.9107,138.268v1.1329a37.8541,37.8541,0,0,1-75.7082,0v-1.1329l.3093-1.09a229.1881,229.1881,0,0,1,30.7987-66.1261L473.22,353.33l6.7458,9.9576a229.166,229.166,0,0,1,30.7993,66.1261Z"/></svg>