<?xml version="1.0" encoding="utf-8"?>
<!-- Generator: Adobe Illustrator 25.2.1, SVG Export Plug-In . SVG Version: 6.00 Build 0)  -->
<svg version="1.1" id="gliff-master-black" xmlns="http://www.w3.org/2000/svg" xmlns:xlink="http://www.w3.org/1999/xlink" x="0px" y="0px"
	 viewBox="0 0 231.52 176.26" style="enable-background:new 0 0 231.52 176.26;" xml:space="preserve">
<g>
	<g>
		<path d="M114.45,98.54h-7.59V1.33h7.59V98.54z"/>
		<path d="M130,10.28c0-1.43,0.46-2.63,1.39-3.62c0.93-0.98,2.19-1.48,3.8-1.48c1.6,0,2.88,0.49,3.83,1.48
			c0.95,0.98,1.42,2.19,1.42,3.62s-0.47,2.62-1.42,3.59c-0.95,0.96-2.23,1.45-3.83,1.45c-1.6,0-2.87-0.48-3.8-1.45
			C130.47,12.9,130,11.71,130,10.28z M138.93,98.54h-7.59V30.06h7.59V98.54z"/>
		<path d="M160.7,98.54V36.26h-11.33v-6.2h11.33v-8.29c0-7,1.78-12.38,5.35-16.14c3.56-3.76,8.53-5.63,14.9-5.63
			c2.87,0,5.55,0.36,8.04,1.07l-0.57,6.28c-2.11-0.51-4.41-0.76-6.9-0.76c-4.18,0-7.43,1.3-9.75,3.9c-2.32,2.6-3.48,6.29-3.48,11.07
			v8.5h16.33v6.2h-16.33v62.27H160.7z"/>
		<path d="M203.23,98.54V36.26H191.9v-6.2h11.33v-8.29c0-7,1.78-12.38,5.35-16.14c3.56-3.76,8.53-5.63,14.9-5.63
			c2.87,0,5.55,0.36,8.04,1.07l-0.57,6.28c-2.11-0.51-4.41-0.76-6.9-0.76c-4.18,0-7.43,1.3-9.75,3.9c-2.32,2.6-3.48,6.29-3.48,11.07
			v8.5h16.33v6.2h-16.33v62.27H203.23z"/>
	</g>
	<g>
		<path d="M70.22,176.26c-1.53,0-3.07-0.12-4.61-0.36c-3.93-0.61-7.74-2.01-11.31-4.12c-16.72,5.66-33.36,0.11-43.43-8.92
			c-7.35-6.59-10.4-14.35-7.97-20.27c1.73-4.21,4.95-6.69,9.29-7.18c10.63-1.18,25.46,10.07,33.66,21.66
			c2.65,3.74,5.71,6.82,9.05,9.15c1.42-0.58,2.84-1.25,4.25-2.02c14.83-8.11,25.78-18.53,29.76-27.79
			c-5.78-5.06-15.41-8.06-27.86-8.48l-0.11-0.01c-8.45-0.67-15.96-2.4-22.32-5.07c-12.98,4-24.9,7.08-32.15,2.65
			c-3.26-1.99-5.3-5.32-6.09-9.89c-2.3-13.43,6.04-21.41,15.43-27.08c0.62-3.25,1.92-6.48,3.85-9.51c3.05-4.78,7.32-8.43,11.41-9.76
			c4.35-1.42,8.1-0.05,10.02,3.64c0.82,1.57,0.98,3.22,0.47,4.78c-1.31,3.99-6.63,6.61-13.37,9.94c-2.52,1.24-5.17,2.55-7.74,3.99
			c-0.09,1.23-0.06,2.47,0.13,3.71c1.45,9.69,7.98,17.36,18.36,22.18c0.82-0.26,1.64-0.51,2.46-0.77
			c15.49-4.86,31.51-9.88,42.12-4.58c9.78,4.89,11.94,11.8,12.03,16.73c0.04,2-0.26,4.07-0.88,6.19c2.34,2.74,3.64,5.5,4.35,7.76
			c2.93,9.27-0.86,20.15-9.22,26.47C83.73,173.9,77.04,176.26,70.22,176.26z M60.33,169.23c1.97,0.83,3.99,1.41,6.05,1.73
			c7.02,1.09,14.08-0.86,20.42-5.64c6.7-5.06,9.77-13.68,7.47-20.97c-0.43-1.36-1.03-2.64-1.79-3.85
			c-5.07,9.78-16.1,19.97-30.92,28.08C61.15,168.81,60.74,169.02,60.33,169.23z M13.81,140.32c-0.36,0-0.71,0.02-1.05,0.06
			c-2.5,0.28-4.21,1.63-5.23,4.12c-1.58,3.84,1.04,9.58,6.68,14.64c8.21,7.35,21.33,12.1,34.91,8.92c-2.67-2.28-5.14-4.99-7.34-8.1
			C34.02,149,21.54,140.32,13.81,140.32z M61.28,122.93c14.44,0.5,23.48,3.98,29.15,8.21c0.1-0.73,0.14-1.45,0.13-2.15
			c-0.09-5.17-3.21-9.32-9.26-12.35c-8.06-4.03-21.34-0.42-34.68,3.72C51.04,121.64,55.95,122.51,61.28,122.93z M15.48,94.71
			C8.74,99.4,3.74,105.56,5.31,114.77c0.54,3.13,1.77,5.25,3.77,6.47c4.64,2.83,13.45,1.1,23.06-1.66
			c-9.22-5.58-15.02-13.62-16.5-23.5C15.57,95.62,15.52,95.17,15.48,94.71z M34.32,73.71c-0.47,0-1.02,0.09-1.7,0.31
			c-3.71,1.21-8.12,5.57-10.5,11.05c1.32-0.67,2.61-1.31,3.86-1.93c4.77-2.36,10.18-5.02,10.83-7.01c0.04-0.14,0.13-0.39-0.15-0.92
			l0,0C36.41,74.72,35.89,73.71,34.32,73.71z"/>
	</g>
	<g>
		<path d="M48.53,99c-20.4,0-37-16.6-37-37s16.6-37,37-37c7.3,0,14.37,2.12,20.43,6.15C79.34,38.03,85.53,49.56,85.53,62
			C85.53,82.4,68.93,99,48.53,99z M48.53,30c-17.65,0-32,14.36-32,32s14.35,32,32,32c17.64,0,32-14.36,32-32
			c0-10.76-5.36-20.73-14.33-26.69C60.96,31.84,54.85,30,48.53,30z"/>
	</g>
	<path d="M78,10.28c0-1.43,0.46-2.63,1.39-3.62c0.93-0.98,2.19-1.48,3.8-1.48c1.6,0,2.88,0.49,3.83,1.48
		c0.95,0.98,1.42,2.19,1.42,3.62s-0.47,2.62-1.42,3.59c-0.95,0.96-2.23,1.45-3.83,1.45c-1.6,0-2.87-0.48-3.8-1.45
		C78.47,12.9,78,11.71,78,10.28z"/>
</g>
</svg>
