<svg id="Layer_1" data-name="Layer 1" xmlns="http://www.w3.org/2000/svg" viewBox="0 0 758 512"><path d="M711.21.27H267.76a46.76,46.76,0,0,0-30.4,11.25L31,188.43a88.55,88.55,0,0,0-9.59,124.7A90.45,90.45,0,0,0,31,322.72l206.4,176.91a46.73,46.73,0,0,0,30.4,11.24H711.21a46.77,46.77,0,0,0,46.72-46.71V47A46.77,46.77,0,0,0,711.21.27Zm-5,458.89H269.61l-205-175.71a36.76,36.76,0,0,1-4-51.77,38.54,38.54,0,0,1,4-4L269.61,52h436.6Z"/><path d="M380.12,322.66a29.8,29.8,0,0,0,42.15,42.14L482,305.09l7.07-7.07,7.07,7.07,59.71,59.71A29.8,29.8,0,0,0,598,322.66L538.27,263l-7.07-7.08,7.07-7.07L598,189.09A29.8,29.8,0,0,0,555.83,147l-59.71,59.71-7.07,7.07L482,206.66,422.27,147a29.8,29.8,0,0,0-42.15,42.14l59.71,59.71,7.07,7.07L439.83,263Z"/></svg>