<svg id="Layer_1" data-name="Layer 1" xmlns="http://www.w3.org/2000/svg" width="575.5501" height="513.7234" viewBox="0 0 575.5501 513.7234"><path d="M575.2116,190.7158A61.1666,61.1666,0,0,0,507.5458,129.49q-2.1789-2.2109-4.4358-4.4023c-44.1416-42.7422-107.9311-75.5508-179.6186-92.38C279.98,22.4915,236.4606,18.8552,195.8757,21.7317A61.0254,61.0254,0,0,0,89.5832,48.1233a184.3154,184.3154,0,0,0-42.3262,27.7c-21.4629,18.99-35.3784,41.5391-41.3608,67.0215S2.341,194.7127,13.111,221.2693c9.8032,24.1748,26.145,47.4424,48.57,69.1572,28.4707,27.5681,65.1236,50.9947,106.7891,68.6756a61.6037,61.6037,0,0,0,32.4536,34.973v23.2655c0,.6709-.0063,1.333-.0181,1.9912-.4487,24.12-15.3808,44.498-32.6069,44.498H43.839a25,25,0,1,0,0,50H168.2985c22.5835,0,43.6568-10.3037,59.3374-29.0126,14.5488-17.3575,22.8093-40.2842,23.2605-64.5528q.0272-1.4457.0271-2.9238V394.0751a61.0534,61.0534,0,0,0,11.5615-6.8213,434.2468,434.2468,0,0,0,79.2237,7.4911c36.2158,0,70.717-4.9219,101.5542-14.7354,29.7456-9.4668,54.7339-23.0312,74.271-40.3183,21.4624-18.9893,35.3784-41.5381,41.3608-67.02A120.8826,120.8826,0,0,0,561.1376,230,61.552,61.552,0,0,0,575.2116,190.7158ZM428.1,332.364c-40.9438,13.03-90.0559,15.8173-141.0595,8.313.0412-.928.07-1.859.07-2.7971a61.1152,61.1152,0,0,0-113.8242-31.3865c-29.85-14.2417-56.0332-31.8554-76.8232-51.9868-34.3736-33.2851-49.25-68.8818-41.89-100.2344,5.1724-22.0317,21.1241-41.0475,45.9649-55.446A61.0664,61.0664,0,0,0,209.76,70.992q6.564-.2564,13.2383-.2666a391.7447,391.7447,0,0,1,89.0655,10.6582c60.28,14.1521,113.6616,40.6438,151.2248,74.906a61.6587,61.6587,0,0,0,48.4226,95.9394,69.2084,69.2084,0,0,1-1.4932,9.0139C502.8576,292.5955,473.6938,317.8533,428.1,332.364Z"/></svg>