<svg id="magic-spline" data-name="Magic Spline" xmlns="http://www.w3.org/2000/svg" viewBox="0 0 575.55 513.72"><g id="Ellipse_34" data-name="Ellipse 34"><ellipse cx="513.02" cy="61.72" rx="61.19" ry="61.57"/></g><g id="Ellipse_36" data-name="Ellipse 36"><ellipse cx="268.28" cy="276.61" rx="61.19" ry="61.57"/></g><g id="Ellipse_35" data-name="Ellipse 35"><ellipse cx="61.92" cy="452.88" rx="61.19" ry="61.57"/></g><g id="Path_174" data-name="Path 174"><path d="M356.09,505.89c-25.84,0-47.56-7.5-64.75-22.39-45.46-39.38-47-118.79-48.69-202.86C240.46,170,234.37,90.42,175.53,75.12c-23.37-6.08-35.84,1.74-43.18,8.15C115,98.43,85.32,145.4,81.66,289.58c-2.18,86.17,6.4,164.38,6.49,165.16l-52.46,5.94a1407.73,1407.73,0,0,1-6.81-171.86C32,163,55.17,80.35,97.74,43.16c24.89-21.75,56.36-28.48,91-19.47,46.46,12.08,77.63,47.1,92.64,104.09,11.94,45.33,13,99.46,14.05,151.8,1.36,68.71,2.76,139.76,30.35,163.66,9.64,8.35,23.7,11.18,43,8.65,82.16-10.74,111.71-114.63,122-199.88,12.09-99.82,1.15-198.6,1-199.59l52.44-6.05c.49,4.25,11.73,105.26-1,211.21-22.66,189-103.72,238.62-167.74,247A150.38,150.38,0,0,1,356.09,505.89Z"/></g></svg>
