<svg id="maximise-icon" data-name="Maximise Icon" xmlns="http://www.w3.org/2000/svg" viewBox="0 0 512 512"><defs><style>.cls-1{fill:none;}</style></defs><g id="Minimise"><g id="Subtraction_2" data-name="Subtraction 2"><g id="Path_139" data-name="Path 139"><path class="cls-1" d="M65-.43H446.7a64.87,64.87,0,0,1,64.94,64.81V446.21a64.94,64.94,0,0,1-64.83,65H65A64.94,64.94,0,0,1,.06,446.31V64.52A65,65,0,0,1,64.91-.43ZM443.7,458.21a15,15,0,0,0,15-15V68.52a15,15,0,0,0-15-15H69a15,15,0,0,0-15,15h0v374.7a15,15,0,0,0,15,15H443.7Z"/></g><g id="Path_140" data-name="Path 140"><path d="M65-.43H446.7a64.86,64.86,0,0,1,64.94,64.77V446.21a64.87,64.87,0,0,1-64.8,65H65a64.94,64.94,0,0,1-64.94-65V64.52A64.87,64.87,0,0,1,64.86-.43ZM443.7,458.21a15,15,0,0,0,15-15V68.52a15,15,0,0,0-15-15H69a15,15,0,0,0-15,15h0v374.7a15,15,0,0,0,15,15H443.7Z"/></g><g id="noun_Upload_3550734" data-name="noun Upload 3550734"><path d="M129.65,108.73a21.12,21.12,0,0,0-21,21l0,148.2a3.8,3.8,0,0,0,3.84,3.8l34.74-.34a3.79,3.79,0,0,0,3.76-3.81l-.37-97L299.05,328.91a3.79,3.79,0,0,0,5.39,0l24.23-24.68a3.81,3.81,0,0,0,0-5.35l-148.1-148.1h97.4a3.81,3.81,0,0,0,3.8-3.84l-.32-34.74a3.81,3.81,0,0,0-3.81-3.77Z"/></g></g></g></svg>
