<svg id="minimise-icon" data-name="Minimise Icon" xmlns="http://www.w3.org/2000/svg" viewBox="0 0 512 512"><defs><style>.cls-1{fill:none;}</style></defs><g id="Minimise"><g id="Subtraction_2" data-name="Subtraction 2"><g id="Path_139" data-name="Path 139"><path class="cls-1" d="M446.7,511.16H65A64.86,64.86,0,0,1,.06,446.35V64.52A65,65,0,0,1,64.89-.43H446.7a65,65,0,0,1,64.94,64.86V446.21a64.94,64.94,0,0,1-64.85,65ZM68,52.52a15,15,0,0,0-15,15v374.7a15,15,0,0,0,15,15H442.7a15,15,0,0,0,15-15h0V67.52a15,15,0,0,0-15-15H68Z"/></g><g id="Path_140" data-name="Path 140"><path d="M446.7,511.16H65A64.85,64.85,0,0,1,.06,446.4V64.52A64.87,64.87,0,0,1,64.86-.43H446.7a64.94,64.94,0,0,1,64.94,65V446.21a64.87,64.87,0,0,1-64.8,65ZM68,52.52a15,15,0,0,0-15,15v374.7a15,15,0,0,0,15,15H442.7a15,15,0,0,0,15-15h0V67.52a15,15,0,0,0-15-15H68Z"/></g><g id="noun_Upload_3550734" data-name="noun Upload 3550734"><path d="M382.05,402a21.11,21.11,0,0,0,21-21l0-148.2a3.79,3.79,0,0,0-3.84-3.8l-34.74.33a3.8,3.8,0,0,0-3.76,3.82l.37,97L212.65,181.83a3.79,3.79,0,0,0-5.39,0L183,206.54a3.81,3.81,0,0,0,0,5.35L331.16,360h-97.4a3.81,3.81,0,0,0-3.8,3.84l.32,34.74a3.81,3.81,0,0,0,3.81,3.77Z"/></g></g></g></svg>
