<svg id="not-selected-tick-box" data-name="Not Selected Tickbox" xmlns="http://www.w3.org/2000/svg" viewBox="0 0 368 368"><path d="M368.18,49.93c0-.5,0-1,0-1.49,0-.2,0-.39,0-.59,0-.66-.09-1.32-.16-2,0,0,0-.06,0-.09A50.2,50.2,0,0,0,320.67,1C319.82,1,319,1,318.1,1h-267a50.13,50.13,0,0,0-50,50.11v267c0,.25,0,.5,0,.75a50.1,50.1,0,0,0,50,49.15H318.22a50,50,0,0,0,50-50V51C368.21,50.63,368.19,50.28,368.18,49.93ZM47.46,315.18v-262a5.81,5.81,0,0,1,5.81-5.81l262.12,0a5.81,5.81,0,0,1,5.79,5.82v262a5.8,5.8,0,0,1-5.79,5.81H53.27A5.81,5.81,0,0,1,47.46,315.18Z"/></svg>
