<svg id="Layer_1" data-name="Layer 1" xmlns="http://www.w3.org/2000/svg" viewBox="0 0 273 512"><g id="noun_Pin_3540294" data-name="noun Pin 3540294"><g id="Group_51" data-name="Group 51"><path id="Path_63" data-name="Path 63" d="M-.07,303.63a17.83,17.83,0,0,0,17.81,17.86H119V494.15a17.86,17.86,0,1,0,35.72,0h0V321.49H255.93a17.83,17.83,0,0,0,17.86-17.81v-.05a65.49,65.49,0,0,0-47.63-63V72.88l42.39-42.39A17.83,17.83,0,0,0,255.93,0H17.79A18,18,0,0,0,1.24,11.08,17.57,17.57,0,0,0,5.17,30.49L47.56,72.88V240.65A65.49,65.49,0,0,0-.07,303.63ZM78,52.87,60.89,35.73H212.83L195.68,52.87a17.86,17.86,0,0,0-5.24,12.62V256a17.84,17.84,0,0,0,17.81,17.86h.05a29.64,29.64,0,0,1,23.81,11.9H41.6a29.64,29.64,0,0,1,23.82-11.9,17.85,17.85,0,0,0,17.86-17.82V65.49A17.9,17.9,0,0,0,78,52.87Z"/></g></g></svg>