<svg id="pin" data-name="Pin" xmlns="http://www.w3.org/2000/svg" viewBox="0 0 457 457"><g id="noun_Pin_3540294" data-name="noun Pin 3540294"><g id="Group_51" data-name="Group 51"><path id="Path_63" data-name="Path 63" d="M55.67,206.88a17.82,17.82,0,0,0,0,25.22l0,0,71.57,71.57L5.15,425.78A17.86,17.86,0,0,0,30.41,451h0L152.49,329l71.57,71.57a17.83,17.83,0,0,0,25.22,0l0,0a65.5,65.5,0,0,0,10.86-78.22L378.81,203.68h59.95a17.84,17.84,0,0,0,12.63-30.48L283,4.81A18,18,0,0,0,263.46.94a17.56,17.56,0,0,0-10.94,16.5V77.38L133.89,196A65.5,65.5,0,0,0,55.67,206.88ZM288.22,84.79V60.55L395.65,168H371.4a17.82,17.82,0,0,0-12.63,5.22L224.06,307.91a17.84,17.84,0,0,0,0,25.23l0,0a29.66,29.66,0,0,1,8.42,25.26L97.77,223.72A29.65,29.65,0,0,1,123,232.13a17.83,17.83,0,0,0,25.22,0l0,0L283,97.42A17.89,17.89,0,0,0,288.22,84.79Z"/></g></g></svg>
