<svg id="redo" data-name="redo" xmlns="http://www.w3.org/2000/svg" viewBox="0 0 510.24 510.24"><path  d="M343.51,255.07l25.4,25.9a9.11,9.11,0,0,0,12.95.06L501.8,161.16a27.23,27.23,0,0,0,.08-38.21h0l0,0L382.35,2.93A9,9,0,0,0,375.89.25h0a9.09,9.09,0,0,0-6.38,2.6L343.62,28.28a9.08,9.08,0,0,0-2.69,7.28,9.51,9.51,0,0,0,2.82,5.85L416,113.6h-201c-51.91,0-81.09,6.8-115.63,26.94C76.58,153.77,2.79,204.7.63,307.17h0l0,2v7.24H.63c2.16,102.47,76,153.4,98.64,166.63C133.82,503.18,163,510,214.9,510H409.05A10.92,10.92,0,0,0,420,499.07V464.54a10.92,10.92,0,0,0-10.91-10.91H214.9c-41.94,0-61.52-4.3-87.07-19.17l-.17-.1c-16.6-9.68-70.74-47.11-70.74-122.57s54.14-112.89,70.74-122.56C153.29,174.28,172.86,170,214.9,170H416.35l-72.76,72.27A9.13,9.13,0,0,0,343.51,255.07Z"/></svg>
