<svg id="reset-zoom-and-pan" data-name="Reset Zoom And Pan" xmlns="http://www.w3.org/2000/svg" viewBox="0 0 512 512"><path d="M219.91,97.81H108.44A11.14,11.14,0,0,0,97.3,109v111.8a13.56,13.56,0,0,0,13.56,13.56h15.81a13.57,13.57,0,0,0,13.56-13.56v-80h79.68a13.57,13.57,0,0,0,13.56-13.56V111.37A13.57,13.57,0,0,0,219.91,97.81Z"/><path d="M401.82,274H385.38a14.09,14.09,0,0,0-14.09,14.1h0v83.22H288.42a14.1,14.1,0,0,0-14.1,14.1h0v16.44a14.1,14.1,0,0,0,14.1,14.09h115.9a11.58,11.58,0,0,0,11.57-11.57V288.09A14.09,14.09,0,0,0,401.82,274Z"/><path d="M511.28,65.34c0-.54,0-1.08,0-1.62s-.09-1.09-.13-1.64S511,61,511,60.43s-.13-1-.2-1.58-.12-1.11-.21-1.65-.18-1-.28-1.56-.18-1.09-.29-1.63-.24-1-.36-1.54-.23-1.06-.36-1.59-.29-1-.44-1.52-.28-1-.44-1.54-.34-1-.51-1.52-.33-1-.51-1.49-.39-1-.59-1.5-.37-1-.57-1.44-.44-1-.67-1.48-.4-.92-.62-1.38-.5-1-.75-1.45-.44-.9-.68-1.34-.56-1-.84-1.45-.47-.84-.72-1.25-.61-1-.92-1.44-.5-.8-.76-1.19-.67-.94-1-1.41-.52-.76-.8-1.12-.7-.9-1.06-1.35-.57-.74-.86-1.1-.74-.85-1.11-1.28l-.92-1.06c-.39-.43-.79-.83-1.19-1.25s-.63-.67-1-1-.81-.77-1.21-1.16-.68-.66-1-1-.8-.7-1.2-1.05l-1.14-1-1.23-1-1.22-.95c-.41-.31-.83-.6-1.25-.89s-.85-.62-1.29-.92-.86-.55-1.3-.83-.87-.58-1.32-.85L478.81,11c-.45-.26-.91-.53-1.37-.78s-.88-.46-1.33-.68-1-.51-1.46-.75-.89-.4-1.33-.6-1-.48-1.54-.7-.9-.35-1.35-.53-1.05-.43-1.58-.63l-1.38-.46c-.54-.19-1.08-.38-1.63-.55s-.9-.26-1.35-.39-1.14-.33-1.72-.48-1-.23-1.45-.34-1.11-.27-1.68-.38-1-.18-1.46-.27l-1.72-.3c-.46-.07-.93-.12-1.4-.18s-1.22-.17-1.84-.23-1.26-.1-1.9-.15c-.46,0-.92-.08-1.38-.1q-1.67-.09-3.33-.09H66.15A64.67,64.67,0,0,0,1.54,67.1V447.55h0v.06a64.63,64.63,0,0,0,64.72,64.56h380.5a64.65,64.65,0,0,0,64.57-64.72V67C511.32,66.44,511.3,65.89,511.28,65.34ZM442.63,458.41H69.24A14.93,14.93,0,0,1,54.3,443.48V70.08A14.93,14.93,0,0,1,69.24,55.15H442.63a14.93,14.93,0,0,1,14.94,14.93v373.4A14.93,14.93,0,0,1,442.63,458.41Z"/></svg>
