<svg id="Layer_1" data-name="Layer 1" xmlns="http://www.w3.org/2000/svg" viewBox="0 0 510.24 510.24"><defs><style>.cls-1{fill:#1d1d1b;}</style></defs><path class="cls-1" d="M495.21,117,396.77,18.41A56.06,56.06,0,0,0,357,2H56.23A56.3,56.3,0,0,0,0,58.26V455.54A56.3,56.3,0,0,0,56.23,511.8H453.54a56.31,56.31,0,0,0,56.24-56.26V154.74A56.52,56.52,0,0,0,495.21,117ZM376.27,317.6V465.52H133.48l-1-146.89ZM133.5,135.49V48.27H277l1,86.17ZM377.32,272.38H132.45a45.25,45.25,0,0,0-45.2,45.22V465.52h-31a10,10,0,0,1-10-10V58.26a10,10,0,0,1,10-10h31v87.22a45.26,45.26,0,0,0,45.2,45.22H278a45.26,45.26,0,0,0,45.2-45.22V48.27h33.84a9.05,9.05,0,0,1,7.09,2.92l96.53,96.53a10,10,0,0,1,2.92,7.09l0,300.71a10,10,0,0,1-10,10h-31V317.6A45.26,45.26,0,0,0,377.32,272.38Z"/></svg>