<svg id="Layer_1" data-name="Layer 1" xmlns="http://www.w3.org/2000/svg" width="475" height="475" viewBox="0 0 475 475"><path d="M461.5625,107.0928,369.8252,15.1963A52.232,52.232,0,0,0,332.771-.0967H52.4685A52.4687,52.4687,0,0,0,.0615,52.33V422.5732A52.4687,52.4687,0,0,0,52.4685,475H422.7314a52.4687,52.4687,0,0,0,52.407-52.4268V142.2505A52.7009,52.7009,0,0,0,461.5625,107.0928ZM360.0425,294.021V431.8765H115.1372L114.199,294.98ZM115.1572,124.3022V43.0269h152.37l.9184,80.2973ZM361.021,251.876H114.179a42.1759,42.1759,0,0,0-42.1253,42.145V431.8765H52.4685a9.33,9.33,0,0,1-9.3035-9.3233V52.33a9.3126,9.3126,0,0,1,9.3035-9.3032H72.0737v81.2753a42.1764,42.1764,0,0,0,42.1253,42.1456H268.4651A42.1764,42.1764,0,0,0,310.59,124.3022V43.0269H332.811a8.4539,8.4539,0,0,1,6.6082,2.7148l89.96,89.96a9.369,9.369,0,0,1,2.7151,6.6084l-.04,280.2427a9.33,9.33,0,0,1-9.3032,9.3233H403.146V294.021A42.1757,42.1757,0,0,0,361.021,251.876Z"/></svg>