<svg id="Layer_1" data-name="Layer 1" xmlns="http://www.w3.org/2000/svg" viewBox="0 0 510.24 510.24"><defs><style>.cls-1{fill:#1d1d1b;}</style></defs><path class="cls-1" d="M463.51,305.43,122.84,4.84a23,23,0,0,0-37.9,17.82V476.28a23.06,23.06,0,0,0,23,23.09H108a23.09,23.09,0,0,0,17-7.53l84.08-91.92L253,497.25a23.08,23.08,0,0,0,30.52,11.53l73-33a23,23,0,0,0,11.52-30.52l-43.91-97.24,124.49-2.31a23.07,23.07,0,0,0,14.85-40.32Zm-175.25-2.85a23,23,0,0,0-20.62,32.48L316.5,443.23l-31.1,14.06L236.54,349.11A23,23,0,0,0,219.37,336l-3.69,0h-.05a23.05,23.05,0,0,0-17,7.48L131,417V73.69L388.52,300.81Z"/></svg>