<svg id="select-tickbox" data-name="Select Tickbox" xmlns="http://www.w3.org/2000/svg" viewBox="0 0 368 368"><defs><style>.cls-1{fill:#02ffad;}.cls-2{fill:#fff;}</style></defs><g id="Tick_Box_active_Icon_" data-name="Tick Box active Icon "><g id="Tick_Box_not_active_Icon_" data-name="Tick Box not active Icon "><g id="Subtraction_2" data-name="Subtraction 2"><g id="Path_139" data-name="Path 139"><path class="cls-1" d="M50.18,367.66A50.25,50.25,0,0,1,0,317.64V50A50.31,50.31,0,0,1,50.13-.25H317.77A50.32,50.32,0,0,1,368,49.91V317.53a50.32,50.32,0,0,1-50.16,50.13H50.18Zm0-358.54A40.91,40.91,0,0,0,9.36,50V317.62A40.87,40.87,0,0,0,50.18,358.3H317.84a41,41,0,0,0,40.8-40.77V49.91A40.93,40.93,0,0,0,317.77,9.12ZM315.06,329.91H52.33a15.2,15.2,0,0,1-15.19-15.19V52.06A15.2,15.2,0,0,1,52.33,36.87l262.73,0a15.19,15.19,0,0,1,15.16,15.19V314.72A15.19,15.19,0,0,1,315.06,329.91ZM52.33,46.23h0a5.83,5.83,0,0,0-5.83,5.83V314.72a5.82,5.82,0,0,0,5.83,5.82H315.06a5.81,5.81,0,0,0,5.8-5.82V52.08a5.81,5.81,0,0,0-5.8-5.82Z"/></g><g id="Path_140" data-name="Path 140"><path class="cls-1" d="M317.78,363H50.22a45.47,45.47,0,0,1-45.54-45.4V50A45.5,45.5,0,0,1,50.13,4.43H317.78A45.54,45.54,0,0,1,363.32,50V317.53A45.47,45.47,0,0,1,317.83,363ZM52.3,41.55a10.5,10.5,0,0,0-10.5,10.5V314.73a10.5,10.5,0,0,0,10.5,10.5H315.05a10.5,10.5,0,0,0,10.5-10.5h0V52.08a10.51,10.51,0,0,0-10.5-10.51h0Z"/><path class="cls-1" d="M50.13,367.66A50.22,50.22,0,0,1,0,317.57V50A50.26,50.26,0,0,1,50.13-.25H317.77A50.3,50.3,0,0,1,368,50V317.53a50.22,50.22,0,0,1-50.18,50.13H50.13Zm.1-358.54A40.83,40.83,0,0,0,9.36,50V317.53A40.8,40.8,0,0,0,50.13,358.3H317.82a40.85,40.85,0,0,0,40.82-40.77V50A40.9,40.9,0,0,0,317.77,9.12ZM315.06,329.91H52.3a15.19,15.19,0,0,1-15.18-15.19V52.06A15.19,15.19,0,0,1,52.3,36.87l262.76,0a15.19,15.19,0,0,1,15.16,15.19V314.72A15.19,15.19,0,0,1,315.06,329.91ZM52.3,46.23a5.82,5.82,0,0,0-5.82,5.83V314.72a5.81,5.81,0,0,0,5.82,5.82H315.06a5.81,5.81,0,0,0,5.8-5.82V52.08a5.81,5.81,0,0,0-5.8-5.82Z"/></g></g></g><g id="Rectangle_101" data-name="Rectangle 101"><rect class="cls-1" x="31.96" y="20.06" width="304.05" height="327.44"/></g><g id="Path_172" data-name="Path 172"><path class="cls-2" d="M149.2,284.58a16.37,16.37,0,0,1-11.3-4.68L79.57,220.64a16,16,0,0,1,23.06-22.11l44.7,46.1L264,89.4a16.14,16.14,0,0,1,26.19,18.86c-.1.15-.21.3-.32.44L162.37,278.05a16.68,16.68,0,0,1-11.7,6.6Z"/><path class="cls-2" d="M150.86,291.67l-1.85-.09a23.22,23.22,0,0,1-16-6.64L74.57,225.55a23,23,0,0,1,33-32l39,40.26L258.37,85.18a23.06,23.06,0,0,1,15-9.21,23.66,23.66,0,0,1,17.27,4.09,23.12,23.12,0,0,1,5.25,32.3L168,282.29a23.86,23.86,0,0,1-16.61,9.34Zm-59.5-90.83a9,9,0,0,0-6.62,15L142.91,275a9.23,9.23,0,0,0,6.33,2.56l1.76.07a9.92,9.92,0,0,0,5.77-3.79l127.5-169.36a9.42,9.42,0,0,0,1.83-7.11,9.19,9.19,0,0,0-3.68-5.94,9.18,9.18,0,0,0-12.75,2.06L148,255.4l-50.4-52A8.75,8.75,0,0,0,91.36,200.84Z"/></g></g></svg>
