<svg id="select" data-name="Select" xmlns="http://www.w3.org/2000/svg" viewBox="0 0 512 512"><path d="M457.77,305.91,117.1,5.32A23,23,0,0,0,79.2,23.14V476.76a23.06,23.06,0,0,0,23,23.09h.06a23.09,23.09,0,0,0,17-7.53l84.08-91.92,43.91,97.33a23.06,23.06,0,0,0,30.52,11.52l73-32.95a23,23,0,0,0,11.52-30.52l-43.91-97.24,124.49-2.31a23.07,23.07,0,0,0,14.85-40.32Zm-175.25-2.85a23,23,0,0,0-20.62,32.48l48.86,108.17-31.1,14.06L230.8,349.59a23,23,0,0,0-17.16-13.13l-3.7,0h-.05a23.05,23.05,0,0,0-17,7.48l-67.62,73.58V74.17l257.5,227.12Z"/></svg>
