<svg id="Layer_1" data-name="Layer 1" xmlns="http://www.w3.org/2000/svg" viewBox="0 0 575.55 513.72"><path d="M511.69,1.72c-34,0-61.61,27.34-61.61,61.06a60.46,60.46,0,0,0,12.3,36.61L353.18,291.05c-2-.2-4.08-.31-6.16-.31a62.62,62.62,0,0,0-13,1.37l-58.34-94.2a61.14,61.14,0,0,0,9.73-33.19c0-33.72-27.08-61.06-60.49-61.06S164.42,131,164.42,164.72a61.11,61.11,0,0,0,11.52,35.82L66.52,391.84c-1.88-.17-3.79-.28-5.72-.28a61.08,61.08,0,1,0,49.48,25.31L219.73,225.53c1.71.15,3.43.24,5.18.24a60.71,60.71,0,0,0,8.36-.59l59.88,96.69a59.37,59.37,0,0,0-7.75,29.37c0,33.41,27.59,60.49,61.62,60.49s61.61-27.08,61.61-60.49A59.49,59.49,0,0,0,397,315.92L506.6,123.6c1.68.14,3.38.23,5.09.23,34,0,61.61-27.34,61.61-61S545.72,1.72,511.69,1.72Z"/></svg>