<svg id="undo" data-name="undo" xmlns="http://www.w3.org/2000/svg" viewBox="0 0 510.24 510.24"><path d="M509.61,307.17c-2.17-102.47-76-153.4-98.64-166.63-34.55-20.14-63.73-26.94-115.63-26.94h-201l72.19-72.19a9.47,9.47,0,0,0,2.83-5.85,9.09,9.09,0,0,0-2.7-7.28L140.72,2.86a9.1,9.1,0,0,0-12.83.07L8.4,122.91l-.05,0h0a27.22,27.22,0,0,0,.09,38.18L128.38,281a9.1,9.1,0,0,0,12.94-.06l25.41-25.9a9.14,9.14,0,0,0-.09-12.85L93.89,170H295.34c42,0,61.61,4.32,87.24,19.27,16.59,9.67,70.74,47.11,70.74,122.56s-54.15,112.89-70.74,122.57l-.22.13h0c-25.53,14.84-45.11,19.14-87,19.14H101.18a10.92,10.92,0,0,0-10.91,10.91v34.53A10.92,10.92,0,0,0,101.18,510H295.34c51.9,0,81.08-6.8,115.63-26.94,22.68-13.23,96.47-64.16,98.64-166.63h0l0-2v-7.24Z"/></svg>
