<svg id="zoom-in" data-name="Zoom In" xmlns="http://www.w3.org/2000/svg" viewBox="0 0 513.55 513.72"><path d="M283.27,188.35a19.43,19.43,0,0,0-6.14-4.15,18.77,18.77,0,0,0-7.42-1.52H225.17V138.14a18.77,18.77,0,0,0-1.52-7.42,19.67,19.67,0,0,0-10.29-10.3,18.9,18.9,0,0,0-14.85,0,19.67,19.67,0,0,0-10.29,10.3,18.77,18.77,0,0,0-1.52,7.42v44.54H142.16a18.77,18.77,0,0,0-7.42,1.52,19.32,19.32,0,0,0-6.14,4.15,19.62,19.62,0,0,0-4.16,6.14,19,19,0,0,0,0,14.85,19.67,19.67,0,0,0,10.3,10.29,18.77,18.77,0,0,0,7.42,1.52H186.7v44.54a18.77,18.77,0,0,0,1.52,7.42,19.7,19.7,0,0,0,10.29,10.29,18.9,18.9,0,0,0,14.85,0,19.7,19.7,0,0,0,10.29-10.29,18.77,18.77,0,0,0,1.52-7.42V221.15h44.54a18.77,18.77,0,0,0,7.42-1.52,19.62,19.62,0,0,0,6.14-4.16,19.27,19.27,0,0,0,4.15-6.13,18.9,18.9,0,0,0,0-14.85A19.43,19.43,0,0,0,283.27,188.35Z"/><path d="M510.53,452.56A43.61,43.61,0,0,0,500.89,438l-120-120L378,315.16l2.09-3.43a206.67,206.67,0,0,0,25.23-63.2,207.61,207.61,0,0,0,3.48-66.92,203.91,203.91,0,0,0-18.36-64.78A201.64,201.64,0,0,0,350.17,60h0A203.67,203.67,0,0,0,244.33,3.94a208,208,0,0,0-78.53,0,204,204,0,0,0-132,88.16,202.88,202.88,0,0,0-18.69,35.67A206.18,206.18,0,0,0,3.9,165.83a208,208,0,0,0,0,78.54,206,206,0,0,0,11.22,38.06A203.2,203.2,0,0,0,60,350.18a204.13,204.13,0,0,0,105.62,55.71,207.87,207.87,0,0,0,146.69-26.3l3.44-2.09,2.84,2.84,120,120A43.41,43.41,0,0,0,453.11,510a44.6,44.6,0,0,0,33.23,0,43.87,43.87,0,0,0,24.19-24.19,44.63,44.63,0,0,0,0-33.24ZM313.91,313.37a154.18,154.18,0,0,1-217.69,0c-60-60-60-157.68,0-217.69a154.18,154.18,0,0,1,217.69,0C373.92,155.69,373.92,253.35,313.91,313.37Z"/></svg>
